<mxfile host="app.diagrams.net" modified="2020-09-23T00:48:42.166Z" agent="5.0 (Windows NT 10.0; Win64; x64) AppleWebKit/537.36 (KHTML, like Gecko) Chrome/85.0.4183.83 Safari/537.36 OPR/71.0.3770.138" etag="NOXukmYkS9J31cJ9ezbI" version="13.7.3" type="github">
  <diagram id="R2lEEEUBdFMjLlhIrx00" name="Page-1">
    <mxGraphModel dx="1381" dy="795" grid="1" gridSize="10" guides="1" tooltips="1" connect="1" arrows="1" fold="1" page="1" pageScale="1" pageWidth="850" pageHeight="1100" math="0" shadow="0" extFonts="Permanent Marker^https://fonts.googleapis.com/css?family=Permanent+Marker">
      <root>
        <mxCell id="0" />
        <mxCell id="1" parent="0" />
        <mxCell id="sITx-1ydjFIyBcLPKVxc-150" style="edgeStyle=orthogonalEdgeStyle;rounded=0;orthogonalLoop=1;jettySize=auto;html=1;exitX=0.5;exitY=1;exitDx=0;exitDy=0;startArrow=ERmandOne;startFill=0;endArrow=ERzeroToMany;endFill=1;entryX=0.25;entryY=0;entryDx=0;entryDy=0;" edge="1" parent="1" source="sITx-1ydjFIyBcLPKVxc-1" target="sITx-1ydjFIyBcLPKVxc-123">
          <mxGeometry relative="1" as="geometry" />
        </mxCell>
        <mxCell id="sITx-1ydjFIyBcLPKVxc-165" style="edgeStyle=orthogonalEdgeStyle;rounded=0;orthogonalLoop=1;jettySize=auto;html=1;exitX=1;exitY=0;exitDx=0;exitDy=0;startArrow=ERzeroToMany;startFill=1;endArrow=ERmandOne;endFill=0;" edge="1" parent="1" source="sITx-1ydjFIyBcLPKVxc-109" target="sITx-1ydjFIyBcLPKVxc-133">
          <mxGeometry relative="1" as="geometry">
            <Array as="points">
              <mxPoint x="210" y="470" />
              <mxPoint x="210" y="435" />
            </Array>
          </mxGeometry>
        </mxCell>
        <mxCell id="sITx-1ydjFIyBcLPKVxc-109" value="Climas" style="shape=table;startSize=30;container=1;collapsible=1;childLayout=tableLayout;fixedRows=1;rowLines=0;fontStyle=1;align=center;resizeLast=1;" vertex="1" parent="1">
          <mxGeometry x="10" y="470" width="180" height="160" as="geometry" />
        </mxCell>
        <mxCell id="sITx-1ydjFIyBcLPKVxc-110" value="" style="shape=partialRectangle;collapsible=0;dropTarget=0;pointerEvents=0;fillColor=none;top=0;left=0;bottom=1;right=0;points=[[0,0.5],[1,0.5]];portConstraint=eastwest;" vertex="1" parent="sITx-1ydjFIyBcLPKVxc-109">
          <mxGeometry y="30" width="180" height="30" as="geometry" />
        </mxCell>
        <mxCell id="sITx-1ydjFIyBcLPKVxc-111" value="PK" style="shape=partialRectangle;connectable=0;fillColor=none;top=0;left=0;bottom=0;right=0;fontStyle=1;overflow=hidden;" vertex="1" parent="sITx-1ydjFIyBcLPKVxc-110">
          <mxGeometry width="30" height="30" as="geometry" />
        </mxCell>
        <mxCell id="sITx-1ydjFIyBcLPKVxc-112" value="id_clima" style="shape=partialRectangle;connectable=0;fillColor=none;top=0;left=0;bottom=0;right=0;align=left;spacingLeft=6;fontStyle=5;overflow=hidden;" vertex="1" parent="sITx-1ydjFIyBcLPKVxc-110">
          <mxGeometry x="30" width="150" height="30" as="geometry" />
        </mxCell>
        <mxCell id="sITx-1ydjFIyBcLPKVxc-113" value="" style="shape=partialRectangle;collapsible=0;dropTarget=0;pointerEvents=0;fillColor=none;top=0;left=0;bottom=0;right=0;points=[[0,0.5],[1,0.5]];portConstraint=eastwest;" vertex="1" parent="sITx-1ydjFIyBcLPKVxc-109">
          <mxGeometry y="60" width="180" height="30" as="geometry" />
        </mxCell>
        <mxCell id="sITx-1ydjFIyBcLPKVxc-114" value="" style="shape=partialRectangle;connectable=0;fillColor=none;top=0;left=0;bottom=0;right=0;editable=1;overflow=hidden;" vertex="1" parent="sITx-1ydjFIyBcLPKVxc-113">
          <mxGeometry width="30" height="30" as="geometry" />
        </mxCell>
        <mxCell id="sITx-1ydjFIyBcLPKVxc-115" value="Cálido" style="shape=partialRectangle;connectable=0;fillColor=none;top=0;left=0;bottom=0;right=0;align=left;spacingLeft=6;overflow=hidden;" vertex="1" parent="sITx-1ydjFIyBcLPKVxc-113">
          <mxGeometry x="30" width="150" height="30" as="geometry" />
        </mxCell>
        <mxCell id="sITx-1ydjFIyBcLPKVxc-116" value="" style="shape=partialRectangle;collapsible=0;dropTarget=0;pointerEvents=0;fillColor=none;top=0;left=0;bottom=0;right=0;points=[[0,0.5],[1,0.5]];portConstraint=eastwest;" vertex="1" parent="sITx-1ydjFIyBcLPKVxc-109">
          <mxGeometry y="90" width="180" height="30" as="geometry" />
        </mxCell>
        <mxCell id="sITx-1ydjFIyBcLPKVxc-117" value="" style="shape=partialRectangle;connectable=0;fillColor=none;top=0;left=0;bottom=0;right=0;editable=1;overflow=hidden;" vertex="1" parent="sITx-1ydjFIyBcLPKVxc-116">
          <mxGeometry width="30" height="30" as="geometry" />
        </mxCell>
        <mxCell id="sITx-1ydjFIyBcLPKVxc-118" value="Templado" style="shape=partialRectangle;connectable=0;fillColor=none;top=0;left=0;bottom=0;right=0;align=left;spacingLeft=6;overflow=hidden;" vertex="1" parent="sITx-1ydjFIyBcLPKVxc-116">
          <mxGeometry x="30" width="150" height="30" as="geometry" />
        </mxCell>
        <mxCell id="sITx-1ydjFIyBcLPKVxc-119" value="" style="shape=partialRectangle;collapsible=0;dropTarget=0;pointerEvents=0;fillColor=none;top=0;left=0;bottom=0;right=0;points=[[0,0.5],[1,0.5]];portConstraint=eastwest;" vertex="1" parent="sITx-1ydjFIyBcLPKVxc-109">
          <mxGeometry y="120" width="180" height="30" as="geometry" />
        </mxCell>
        <mxCell id="sITx-1ydjFIyBcLPKVxc-120" value="" style="shape=partialRectangle;connectable=0;fillColor=none;top=0;left=0;bottom=0;right=0;editable=1;overflow=hidden;" vertex="1" parent="sITx-1ydjFIyBcLPKVxc-119">
          <mxGeometry width="30" height="30" as="geometry" />
        </mxCell>
        <mxCell id="sITx-1ydjFIyBcLPKVxc-121" value="Polar" style="shape=partialRectangle;connectable=0;fillColor=none;top=0;left=0;bottom=0;right=0;align=left;spacingLeft=6;overflow=hidden;" vertex="1" parent="sITx-1ydjFIyBcLPKVxc-119">
          <mxGeometry x="30" width="150" height="30" as="geometry" />
        </mxCell>
        <mxCell id="sITx-1ydjFIyBcLPKVxc-122" style="edgeStyle=orthogonalEdgeStyle;rounded=0;orthogonalLoop=1;jettySize=auto;html=1;entryX=0;entryY=0.5;entryDx=0;entryDy=0;endArrow=ERone;endFill=0;startArrow=ERmany;startFill=0;" edge="1" parent="1" source="sITx-1ydjFIyBcLPKVxc-110" target="sITx-1ydjFIyBcLPKVxc-106">
          <mxGeometry relative="1" as="geometry" />
        </mxCell>
        <mxCell id="sITx-1ydjFIyBcLPKVxc-149" style="edgeStyle=orthogonalEdgeStyle;rounded=0;orthogonalLoop=1;jettySize=auto;html=1;startArrow=ERmandOne;startFill=0;endArrow=ERzeroToMany;endFill=1;" edge="1" parent="1" source="sITx-1ydjFIyBcLPKVxc-123" target="sITx-1ydjFIyBcLPKVxc-137">
          <mxGeometry relative="1" as="geometry" />
        </mxCell>
        <mxCell id="sITx-1ydjFIyBcLPKVxc-166" style="edgeStyle=orthogonalEdgeStyle;rounded=0;orthogonalLoop=1;jettySize=auto;html=1;entryX=0.5;entryY=0;entryDx=0;entryDy=0;startArrow=ERzeroToMany;startFill=1;endArrow=ERmandOne;endFill=0;" edge="1" parent="1" source="sITx-1ydjFIyBcLPKVxc-46" target="sITx-1ydjFIyBcLPKVxc-151">
          <mxGeometry relative="1" as="geometry" />
        </mxCell>
        <mxCell id="sITx-1ydjFIyBcLPKVxc-46" value="Plagas" style="shape=table;startSize=30;container=1;collapsible=1;childLayout=tableLayout;fixedRows=1;rowLines=0;fontStyle=1;align=center;resizeLast=1;" vertex="1" parent="1">
          <mxGeometry x="450" y="10" width="180" height="220" as="geometry" />
        </mxCell>
        <mxCell id="sITx-1ydjFIyBcLPKVxc-47" value="" style="shape=partialRectangle;collapsible=0;dropTarget=0;pointerEvents=0;fillColor=none;top=0;left=0;bottom=1;right=0;points=[[0,0.5],[1,0.5]];portConstraint=eastwest;" vertex="1" parent="sITx-1ydjFIyBcLPKVxc-46">
          <mxGeometry y="30" width="180" height="30" as="geometry" />
        </mxCell>
        <mxCell id="sITx-1ydjFIyBcLPKVxc-48" value="PK" style="shape=partialRectangle;connectable=0;fillColor=none;top=0;left=0;bottom=0;right=0;fontStyle=1;overflow=hidden;" vertex="1" parent="sITx-1ydjFIyBcLPKVxc-47">
          <mxGeometry width="30" height="30" as="geometry" />
        </mxCell>
        <mxCell id="sITx-1ydjFIyBcLPKVxc-49" value="id_plaga" style="shape=partialRectangle;connectable=0;fillColor=none;top=0;left=0;bottom=0;right=0;align=left;spacingLeft=6;fontStyle=5;overflow=hidden;" vertex="1" parent="sITx-1ydjFIyBcLPKVxc-47">
          <mxGeometry x="30" width="150" height="30" as="geometry" />
        </mxCell>
        <mxCell id="sITx-1ydjFIyBcLPKVxc-50" value="" style="shape=partialRectangle;collapsible=0;dropTarget=0;pointerEvents=0;fillColor=none;top=0;left=0;bottom=0;right=0;points=[[0,0.5],[1,0.5]];portConstraint=eastwest;" vertex="1" parent="sITx-1ydjFIyBcLPKVxc-46">
          <mxGeometry y="60" width="180" height="30" as="geometry" />
        </mxCell>
        <mxCell id="sITx-1ydjFIyBcLPKVxc-51" value="" style="shape=partialRectangle;connectable=0;fillColor=none;top=0;left=0;bottom=0;right=0;editable=1;overflow=hidden;" vertex="1" parent="sITx-1ydjFIyBcLPKVxc-50">
          <mxGeometry width="30" height="30" as="geometry" />
        </mxCell>
        <mxCell id="sITx-1ydjFIyBcLPKVxc-52" value="Nombre coumún" style="shape=partialRectangle;connectable=0;fillColor=none;top=0;left=0;bottom=0;right=0;align=left;spacingLeft=6;overflow=hidden;" vertex="1" parent="sITx-1ydjFIyBcLPKVxc-50">
          <mxGeometry x="30" width="150" height="30" as="geometry" />
        </mxCell>
        <mxCell id="sITx-1ydjFIyBcLPKVxc-53" value="" style="shape=partialRectangle;collapsible=0;dropTarget=0;pointerEvents=0;fillColor=none;top=0;left=0;bottom=0;right=0;points=[[0,0.5],[1,0.5]];portConstraint=eastwest;" vertex="1" parent="sITx-1ydjFIyBcLPKVxc-46">
          <mxGeometry y="90" width="180" height="30" as="geometry" />
        </mxCell>
        <mxCell id="sITx-1ydjFIyBcLPKVxc-54" value="" style="shape=partialRectangle;connectable=0;fillColor=none;top=0;left=0;bottom=0;right=0;editable=1;overflow=hidden;" vertex="1" parent="sITx-1ydjFIyBcLPKVxc-53">
          <mxGeometry width="30" height="30" as="geometry" />
        </mxCell>
        <mxCell id="sITx-1ydjFIyBcLPKVxc-55" value="Nombre cientifico" style="shape=partialRectangle;connectable=0;fillColor=none;top=0;left=0;bottom=0;right=0;align=left;spacingLeft=6;overflow=hidden;" vertex="1" parent="sITx-1ydjFIyBcLPKVxc-53">
          <mxGeometry x="30" width="150" height="30" as="geometry" />
        </mxCell>
        <mxCell id="sITx-1ydjFIyBcLPKVxc-56" value="" style="shape=partialRectangle;collapsible=0;dropTarget=0;pointerEvents=0;fillColor=none;top=0;left=0;bottom=0;right=0;points=[[0,0.5],[1,0.5]];portConstraint=eastwest;" vertex="1" parent="sITx-1ydjFIyBcLPKVxc-46">
          <mxGeometry y="120" width="180" height="30" as="geometry" />
        </mxCell>
        <mxCell id="sITx-1ydjFIyBcLPKVxc-57" value="" style="shape=partialRectangle;connectable=0;fillColor=none;top=0;left=0;bottom=0;right=0;editable=1;overflow=hidden;" vertex="1" parent="sITx-1ydjFIyBcLPKVxc-56">
          <mxGeometry width="30" height="30" as="geometry" />
        </mxCell>
        <mxCell id="sITx-1ydjFIyBcLPKVxc-58" value="Sintomas" style="shape=partialRectangle;connectable=0;fillColor=none;top=0;left=0;bottom=0;right=0;align=left;spacingLeft=6;overflow=hidden;" vertex="1" parent="sITx-1ydjFIyBcLPKVxc-56">
          <mxGeometry x="30" width="150" height="30" as="geometry" />
        </mxCell>
        <mxCell id="sITx-1ydjFIyBcLPKVxc-62" value="" style="shape=partialRectangle;collapsible=0;dropTarget=0;pointerEvents=0;fillColor=none;top=0;left=0;bottom=0;right=0;points=[[0,0.5],[1,0.5]];portConstraint=eastwest;" vertex="1" parent="sITx-1ydjFIyBcLPKVxc-46">
          <mxGeometry y="150" width="180" height="30" as="geometry" />
        </mxCell>
        <mxCell id="sITx-1ydjFIyBcLPKVxc-63" value="" style="shape=partialRectangle;connectable=0;fillColor=none;top=0;left=0;bottom=0;right=0;editable=1;overflow=hidden;" vertex="1" parent="sITx-1ydjFIyBcLPKVxc-62">
          <mxGeometry width="30" height="30" as="geometry" />
        </mxCell>
        <mxCell id="sITx-1ydjFIyBcLPKVxc-64" value="Tratamiento" style="shape=partialRectangle;connectable=0;fillColor=none;top=0;left=0;bottom=0;right=0;align=left;spacingLeft=6;overflow=hidden;" vertex="1" parent="sITx-1ydjFIyBcLPKVxc-62">
          <mxGeometry x="30" width="150" height="30" as="geometry" />
        </mxCell>
        <mxCell id="sITx-1ydjFIyBcLPKVxc-71" value="" style="shape=partialRectangle;collapsible=0;dropTarget=0;pointerEvents=0;fillColor=none;top=0;left=0;bottom=0;right=0;points=[[0,0.5],[1,0.5]];portConstraint=eastwest;" vertex="1" parent="sITx-1ydjFIyBcLPKVxc-46">
          <mxGeometry y="180" width="180" height="30" as="geometry" />
        </mxCell>
        <mxCell id="sITx-1ydjFIyBcLPKVxc-72" value="" style="shape=partialRectangle;connectable=0;fillColor=none;top=0;left=0;bottom=0;right=0;editable=1;overflow=hidden;" vertex="1" parent="sITx-1ydjFIyBcLPKVxc-71">
          <mxGeometry width="30" height="30" as="geometry" />
        </mxCell>
        <mxCell id="sITx-1ydjFIyBcLPKVxc-73" value="img_url" style="shape=partialRectangle;connectable=0;fillColor=none;top=0;left=0;bottom=0;right=0;align=left;spacingLeft=6;overflow=hidden;" vertex="1" parent="sITx-1ydjFIyBcLPKVxc-71">
          <mxGeometry x="30" width="150" height="30" as="geometry" />
        </mxCell>
        <mxCell id="sITx-1ydjFIyBcLPKVxc-164" style="edgeStyle=orthogonalEdgeStyle;rounded=0;orthogonalLoop=1;jettySize=auto;html=1;startArrow=ERmandOne;startFill=0;endArrow=ERzeroToMany;endFill=1;" edge="1" parent="1" source="sITx-1ydjFIyBcLPKVxc-17" target="sITx-1ydjFIyBcLPKVxc-136">
          <mxGeometry relative="1" as="geometry">
            <mxPoint x="100" y="285" as="targetPoint" />
          </mxGeometry>
        </mxCell>
        <mxCell id="sITx-1ydjFIyBcLPKVxc-123" value="Jardin" style="shape=table;startSize=30;container=1;collapsible=1;childLayout=tableLayout;fixedRows=1;rowLines=0;fontStyle=1;align=center;resizeLast=1;" vertex="1" parent="1">
          <mxGeometry x="240" y="300" width="180" height="160" as="geometry" />
        </mxCell>
        <mxCell id="sITx-1ydjFIyBcLPKVxc-124" value="" style="shape=partialRectangle;collapsible=0;dropTarget=0;pointerEvents=0;fillColor=none;top=0;left=0;bottom=1;right=0;points=[[0,0.5],[1,0.5]];portConstraint=eastwest;" vertex="1" parent="sITx-1ydjFIyBcLPKVxc-123">
          <mxGeometry y="30" width="180" height="30" as="geometry" />
        </mxCell>
        <mxCell id="sITx-1ydjFIyBcLPKVxc-125" value="PK" style="shape=partialRectangle;connectable=0;fillColor=none;top=0;left=0;bottom=0;right=0;fontStyle=1;overflow=hidden;" vertex="1" parent="sITx-1ydjFIyBcLPKVxc-124">
          <mxGeometry width="30" height="30" as="geometry" />
        </mxCell>
        <mxCell id="sITx-1ydjFIyBcLPKVxc-126" value="id_jardin" style="shape=partialRectangle;connectable=0;fillColor=none;top=0;left=0;bottom=0;right=0;align=left;spacingLeft=6;fontStyle=5;overflow=hidden;" vertex="1" parent="sITx-1ydjFIyBcLPKVxc-124">
          <mxGeometry x="30" width="150" height="30" as="geometry" />
        </mxCell>
        <mxCell id="sITx-1ydjFIyBcLPKVxc-127" value="" style="shape=partialRectangle;collapsible=0;dropTarget=0;pointerEvents=0;fillColor=none;top=0;left=0;bottom=0;right=0;points=[[0,0.5],[1,0.5]];portConstraint=eastwest;" vertex="1" parent="sITx-1ydjFIyBcLPKVxc-123">
          <mxGeometry y="60" width="180" height="30" as="geometry" />
        </mxCell>
        <mxCell id="sITx-1ydjFIyBcLPKVxc-128" value="" style="shape=partialRectangle;connectable=0;fillColor=none;top=0;left=0;bottom=0;right=0;editable=1;overflow=hidden;" vertex="1" parent="sITx-1ydjFIyBcLPKVxc-127">
          <mxGeometry width="30" height="30" as="geometry" />
        </mxCell>
        <mxCell id="sITx-1ydjFIyBcLPKVxc-129" value="id_usuario" style="shape=partialRectangle;connectable=0;fillColor=none;top=0;left=0;bottom=0;right=0;align=left;spacingLeft=6;overflow=hidden;" vertex="1" parent="sITx-1ydjFIyBcLPKVxc-127">
          <mxGeometry x="30" width="150" height="30" as="geometry" />
        </mxCell>
        <mxCell id="sITx-1ydjFIyBcLPKVxc-130" value="" style="shape=partialRectangle;collapsible=0;dropTarget=0;pointerEvents=0;fillColor=none;top=0;left=0;bottom=0;right=0;points=[[0,0.5],[1,0.5]];portConstraint=eastwest;" vertex="1" parent="sITx-1ydjFIyBcLPKVxc-123">
          <mxGeometry y="90" width="180" height="30" as="geometry" />
        </mxCell>
        <mxCell id="sITx-1ydjFIyBcLPKVxc-131" value="" style="shape=partialRectangle;connectable=0;fillColor=none;top=0;left=0;bottom=0;right=0;editable=1;overflow=hidden;" vertex="1" parent="sITx-1ydjFIyBcLPKVxc-130">
          <mxGeometry width="30" height="30" as="geometry" />
        </mxCell>
        <mxCell id="sITx-1ydjFIyBcLPKVxc-132" value="id_clima" style="shape=partialRectangle;connectable=0;fillColor=none;top=0;left=0;bottom=0;right=0;align=left;spacingLeft=6;overflow=hidden;" vertex="1" parent="sITx-1ydjFIyBcLPKVxc-130">
          <mxGeometry x="30" width="150" height="30" as="geometry" />
        </mxCell>
        <mxCell id="sITx-1ydjFIyBcLPKVxc-133" value="" style="shape=partialRectangle;collapsible=0;dropTarget=0;pointerEvents=0;fillColor=none;top=0;left=0;bottom=0;right=0;points=[[0,0.5],[1,0.5]];portConstraint=eastwest;" vertex="1" parent="sITx-1ydjFIyBcLPKVxc-123">
          <mxGeometry y="120" width="180" height="30" as="geometry" />
        </mxCell>
        <mxCell id="sITx-1ydjFIyBcLPKVxc-134" value="" style="shape=partialRectangle;connectable=0;fillColor=none;top=0;left=0;bottom=0;right=0;editable=1;overflow=hidden;" vertex="1" parent="sITx-1ydjFIyBcLPKVxc-133">
          <mxGeometry width="30" height="30" as="geometry" />
        </mxCell>
        <mxCell id="sITx-1ydjFIyBcLPKVxc-135" value="Row 3" style="shape=partialRectangle;connectable=0;fillColor=none;top=0;left=0;bottom=0;right=0;align=left;spacingLeft=6;overflow=hidden;" vertex="1" parent="sITx-1ydjFIyBcLPKVxc-133">
          <mxGeometry x="30" width="150" height="30" as="geometry" />
        </mxCell>
        <mxCell id="sITx-1ydjFIyBcLPKVxc-167" style="edgeStyle=orthogonalEdgeStyle;rounded=0;orthogonalLoop=1;jettySize=auto;html=1;exitX=0.75;exitY=1;exitDx=0;exitDy=0;startArrow=ERzeroToMany;startFill=1;endArrow=ERmandOne;endFill=0;" edge="1" parent="1" source="sITx-1ydjFIyBcLPKVxc-1" target="sITx-1ydjFIyBcLPKVxc-152">
          <mxGeometry relative="1" as="geometry">
            <Array as="points">
              <mxPoint x="385" y="255" />
            </Array>
          </mxGeometry>
        </mxCell>
        <mxCell id="sITx-1ydjFIyBcLPKVxc-1" value="Usuarios" style="shape=table;startSize=30;container=1;collapsible=1;childLayout=tableLayout;fixedRows=1;rowLines=0;fontStyle=1;align=center;resizeLast=1;" vertex="1" parent="1">
          <mxGeometry x="250" y="10" width="180" height="220" as="geometry" />
        </mxCell>
        <mxCell id="sITx-1ydjFIyBcLPKVxc-2" value="" style="shape=partialRectangle;collapsible=0;dropTarget=0;pointerEvents=0;fillColor=none;top=0;left=0;bottom=1;right=0;points=[[0,0.5],[1,0.5]];portConstraint=eastwest;" vertex="1" parent="sITx-1ydjFIyBcLPKVxc-1">
          <mxGeometry y="30" width="180" height="30" as="geometry" />
        </mxCell>
        <mxCell id="sITx-1ydjFIyBcLPKVxc-3" value="PK" style="shape=partialRectangle;connectable=0;fillColor=none;top=0;left=0;bottom=0;right=0;fontStyle=1;overflow=hidden;" vertex="1" parent="sITx-1ydjFIyBcLPKVxc-2">
          <mxGeometry width="30" height="30" as="geometry" />
        </mxCell>
        <mxCell id="sITx-1ydjFIyBcLPKVxc-4" value="id_usuarios" style="shape=partialRectangle;connectable=0;fillColor=none;top=0;left=0;bottom=0;right=0;align=left;spacingLeft=6;fontStyle=5;overflow=hidden;" vertex="1" parent="sITx-1ydjFIyBcLPKVxc-2">
          <mxGeometry x="30" width="150" height="30" as="geometry" />
        </mxCell>
        <mxCell id="sITx-1ydjFIyBcLPKVxc-5" value="" style="shape=partialRectangle;collapsible=0;dropTarget=0;pointerEvents=0;fillColor=none;top=0;left=0;bottom=0;right=0;points=[[0,0.5],[1,0.5]];portConstraint=eastwest;" vertex="1" parent="sITx-1ydjFIyBcLPKVxc-1">
          <mxGeometry y="60" width="180" height="30" as="geometry" />
        </mxCell>
        <mxCell id="sITx-1ydjFIyBcLPKVxc-6" value="" style="shape=partialRectangle;connectable=0;fillColor=none;top=0;left=0;bottom=0;right=0;editable=1;overflow=hidden;" vertex="1" parent="sITx-1ydjFIyBcLPKVxc-5">
          <mxGeometry width="30" height="30" as="geometry" />
        </mxCell>
        <mxCell id="sITx-1ydjFIyBcLPKVxc-7" value="User Name" style="shape=partialRectangle;connectable=0;fillColor=none;top=0;left=0;bottom=0;right=0;align=left;spacingLeft=6;overflow=hidden;" vertex="1" parent="sITx-1ydjFIyBcLPKVxc-5">
          <mxGeometry x="30" width="150" height="30" as="geometry" />
        </mxCell>
        <mxCell id="sITx-1ydjFIyBcLPKVxc-8" value="" style="shape=partialRectangle;collapsible=0;dropTarget=0;pointerEvents=0;fillColor=none;top=0;left=0;bottom=0;right=0;points=[[0,0.5],[1,0.5]];portConstraint=eastwest;" vertex="1" parent="sITx-1ydjFIyBcLPKVxc-1">
          <mxGeometry y="90" width="180" height="30" as="geometry" />
        </mxCell>
        <mxCell id="sITx-1ydjFIyBcLPKVxc-9" value="" style="shape=partialRectangle;connectable=0;fillColor=none;top=0;left=0;bottom=0;right=0;editable=1;overflow=hidden;" vertex="1" parent="sITx-1ydjFIyBcLPKVxc-8">
          <mxGeometry width="30" height="30" as="geometry" />
        </mxCell>
        <mxCell id="sITx-1ydjFIyBcLPKVxc-10" value="E-mail" style="shape=partialRectangle;connectable=0;fillColor=none;top=0;left=0;bottom=0;right=0;align=left;spacingLeft=6;overflow=hidden;" vertex="1" parent="sITx-1ydjFIyBcLPKVxc-8">
          <mxGeometry x="30" width="150" height="30" as="geometry" />
        </mxCell>
        <mxCell id="sITx-1ydjFIyBcLPKVxc-11" value="" style="shape=partialRectangle;collapsible=0;dropTarget=0;pointerEvents=0;fillColor=none;top=0;left=0;bottom=0;right=0;points=[[0,0.5],[1,0.5]];portConstraint=eastwest;" vertex="1" parent="sITx-1ydjFIyBcLPKVxc-1">
          <mxGeometry y="120" width="180" height="30" as="geometry" />
        </mxCell>
        <mxCell id="sITx-1ydjFIyBcLPKVxc-12" value="" style="shape=partialRectangle;connectable=0;fillColor=none;top=0;left=0;bottom=0;right=0;editable=1;overflow=hidden;" vertex="1" parent="sITx-1ydjFIyBcLPKVxc-11">
          <mxGeometry width="30" height="30" as="geometry" />
        </mxCell>
        <mxCell id="sITx-1ydjFIyBcLPKVxc-13" value="Domicilio" style="shape=partialRectangle;connectable=0;fillColor=none;top=0;left=0;bottom=0;right=0;align=left;spacingLeft=6;overflow=hidden;" vertex="1" parent="sITx-1ydjFIyBcLPKVxc-11">
          <mxGeometry x="30" width="150" height="30" as="geometry" />
        </mxCell>
        <mxCell id="sITx-1ydjFIyBcLPKVxc-14" value="" style="shape=partialRectangle;collapsible=0;dropTarget=0;pointerEvents=0;fillColor=none;top=0;left=0;bottom=0;right=0;points=[[0,0.5],[1,0.5]];portConstraint=eastwest;" vertex="1" parent="sITx-1ydjFIyBcLPKVxc-1">
          <mxGeometry y="150" width="180" height="30" as="geometry" />
        </mxCell>
        <mxCell id="sITx-1ydjFIyBcLPKVxc-15" value="" style="shape=partialRectangle;connectable=0;fillColor=none;top=0;left=0;bottom=0;right=0;editable=1;overflow=hidden;" vertex="1" parent="sITx-1ydjFIyBcLPKVxc-14">
          <mxGeometry width="30" height="30" as="geometry" />
        </mxCell>
        <mxCell id="sITx-1ydjFIyBcLPKVxc-16" value="Contraseña" style="shape=partialRectangle;connectable=0;fillColor=none;top=0;left=0;bottom=0;right=0;align=left;spacingLeft=6;overflow=hidden;" vertex="1" parent="sITx-1ydjFIyBcLPKVxc-14">
          <mxGeometry x="30" width="150" height="30" as="geometry" />
        </mxCell>
        <mxCell id="sITx-1ydjFIyBcLPKVxc-65" value="" style="shape=partialRectangle;collapsible=0;dropTarget=0;pointerEvents=0;fillColor=none;top=0;left=0;bottom=0;right=0;points=[[0,0.5],[1,0.5]];portConstraint=eastwest;" vertex="1" parent="sITx-1ydjFIyBcLPKVxc-1">
          <mxGeometry y="180" width="180" height="30" as="geometry" />
        </mxCell>
        <mxCell id="sITx-1ydjFIyBcLPKVxc-66" value="" style="shape=partialRectangle;connectable=0;fillColor=none;top=0;left=0;bottom=0;right=0;editable=1;overflow=hidden;" vertex="1" parent="sITx-1ydjFIyBcLPKVxc-65">
          <mxGeometry width="30" height="30" as="geometry" />
        </mxCell>
        <mxCell id="sITx-1ydjFIyBcLPKVxc-67" value="img_url" style="shape=partialRectangle;connectable=0;fillColor=none;top=0;left=0;bottom=0;right=0;align=left;spacingLeft=6;overflow=hidden;" vertex="1" parent="sITx-1ydjFIyBcLPKVxc-65">
          <mxGeometry x="30" width="150" height="30" as="geometry" />
        </mxCell>
        <mxCell id="sITx-1ydjFIyBcLPKVxc-17" value="Plantas" style="shape=table;startSize=30;container=1;collapsible=1;childLayout=tableLayout;fixedRows=1;rowLines=0;fontStyle=1;align=center;resizeLast=1;" vertex="1" parent="1">
          <mxGeometry x="10" y="10" width="180" height="240" as="geometry" />
        </mxCell>
        <mxCell id="sITx-1ydjFIyBcLPKVxc-18" value="" style="shape=partialRectangle;collapsible=0;dropTarget=0;pointerEvents=0;fillColor=none;top=0;left=0;bottom=1;right=0;points=[[0,0.5],[1,0.5]];portConstraint=eastwest;" vertex="1" parent="sITx-1ydjFIyBcLPKVxc-17">
          <mxGeometry y="30" width="180" height="30" as="geometry" />
        </mxCell>
        <mxCell id="sITx-1ydjFIyBcLPKVxc-19" value="PK" style="shape=partialRectangle;connectable=0;fillColor=none;top=0;left=0;bottom=0;right=0;fontStyle=1;overflow=hidden;" vertex="1" parent="sITx-1ydjFIyBcLPKVxc-18">
          <mxGeometry width="30" height="30" as="geometry" />
        </mxCell>
        <mxCell id="sITx-1ydjFIyBcLPKVxc-20" value="id_planta" style="shape=partialRectangle;connectable=0;fillColor=none;top=0;left=0;bottom=0;right=0;align=left;spacingLeft=6;fontStyle=5;overflow=hidden;" vertex="1" parent="sITx-1ydjFIyBcLPKVxc-18">
          <mxGeometry x="30" width="150" height="30" as="geometry" />
        </mxCell>
        <mxCell id="sITx-1ydjFIyBcLPKVxc-21" value="" style="shape=partialRectangle;collapsible=0;dropTarget=0;pointerEvents=0;fillColor=none;top=0;left=0;bottom=0;right=0;points=[[0,0.5],[1,0.5]];portConstraint=eastwest;" vertex="1" parent="sITx-1ydjFIyBcLPKVxc-17">
          <mxGeometry y="60" width="180" height="30" as="geometry" />
        </mxCell>
        <mxCell id="sITx-1ydjFIyBcLPKVxc-22" value="" style="shape=partialRectangle;connectable=0;fillColor=none;top=0;left=0;bottom=0;right=0;editable=1;overflow=hidden;" vertex="1" parent="sITx-1ydjFIyBcLPKVxc-21">
          <mxGeometry width="30" height="30" as="geometry" />
        </mxCell>
        <mxCell id="sITx-1ydjFIyBcLPKVxc-23" value="Nombre común" style="shape=partialRectangle;connectable=0;fillColor=none;top=0;left=0;bottom=0;right=0;align=left;spacingLeft=6;overflow=hidden;" vertex="1" parent="sITx-1ydjFIyBcLPKVxc-21">
          <mxGeometry x="30" width="150" height="30" as="geometry" />
        </mxCell>
        <mxCell id="sITx-1ydjFIyBcLPKVxc-24" value="" style="shape=partialRectangle;collapsible=0;dropTarget=0;pointerEvents=0;fillColor=none;top=0;left=0;bottom=0;right=0;points=[[0,0.5],[1,0.5]];portConstraint=eastwest;" vertex="1" parent="sITx-1ydjFIyBcLPKVxc-17">
          <mxGeometry y="90" width="180" height="20" as="geometry" />
        </mxCell>
        <mxCell id="sITx-1ydjFIyBcLPKVxc-25" value="" style="shape=partialRectangle;connectable=0;fillColor=none;top=0;left=0;bottom=0;right=0;editable=1;overflow=hidden;" vertex="1" parent="sITx-1ydjFIyBcLPKVxc-24">
          <mxGeometry width="30" height="20" as="geometry" />
        </mxCell>
        <mxCell id="sITx-1ydjFIyBcLPKVxc-26" value="Nombre Cientifico" style="shape=partialRectangle;connectable=0;fillColor=none;top=0;left=0;bottom=0;right=0;align=left;spacingLeft=6;overflow=hidden;" vertex="1" parent="sITx-1ydjFIyBcLPKVxc-24">
          <mxGeometry x="30" width="150" height="20" as="geometry" />
        </mxCell>
        <mxCell id="sITx-1ydjFIyBcLPKVxc-27" value="" style="shape=partialRectangle;collapsible=0;dropTarget=0;pointerEvents=0;fillColor=none;top=0;left=0;bottom=0;right=0;points=[[0,0.5],[1,0.5]];portConstraint=eastwest;" vertex="1" parent="sITx-1ydjFIyBcLPKVxc-17">
          <mxGeometry y="110" width="180" height="30" as="geometry" />
        </mxCell>
        <mxCell id="sITx-1ydjFIyBcLPKVxc-28" value="" style="shape=partialRectangle;connectable=0;fillColor=none;top=0;left=0;bottom=0;right=0;editable=1;overflow=hidden;" vertex="1" parent="sITx-1ydjFIyBcLPKVxc-27">
          <mxGeometry width="30" height="30" as="geometry" />
        </mxCell>
        <mxCell id="sITx-1ydjFIyBcLPKVxc-29" value="Familia" style="shape=partialRectangle;connectable=0;fillColor=none;top=0;left=0;bottom=0;right=0;align=left;spacingLeft=6;overflow=hidden;" vertex="1" parent="sITx-1ydjFIyBcLPKVxc-27">
          <mxGeometry x="30" width="150" height="30" as="geometry" />
        </mxCell>
        <mxCell id="sITx-1ydjFIyBcLPKVxc-43" value="" style="shape=partialRectangle;collapsible=0;dropTarget=0;pointerEvents=0;fillColor=none;top=0;left=0;bottom=0;right=0;points=[[0,0.5],[1,0.5]];portConstraint=eastwest;" vertex="1" parent="sITx-1ydjFIyBcLPKVxc-17">
          <mxGeometry y="140" width="180" height="30" as="geometry" />
        </mxCell>
        <mxCell id="sITx-1ydjFIyBcLPKVxc-44" value="" style="shape=partialRectangle;connectable=0;fillColor=none;top=0;left=0;bottom=0;right=0;editable=1;overflow=hidden;" vertex="1" parent="sITx-1ydjFIyBcLPKVxc-43">
          <mxGeometry width="30" height="30" as="geometry" />
        </mxCell>
        <mxCell id="sITx-1ydjFIyBcLPKVxc-45" value="Descripción" style="shape=partialRectangle;connectable=0;fillColor=none;top=0;left=0;bottom=0;right=0;align=left;spacingLeft=6;overflow=hidden;" vertex="1" parent="sITx-1ydjFIyBcLPKVxc-43">
          <mxGeometry x="30" width="150" height="30" as="geometry" />
        </mxCell>
        <mxCell id="sITx-1ydjFIyBcLPKVxc-59" value="" style="shape=partialRectangle;collapsible=0;dropTarget=0;pointerEvents=0;fillColor=none;top=0;left=0;bottom=0;right=0;points=[[0,0.5],[1,0.5]];portConstraint=eastwest;" vertex="1" parent="sITx-1ydjFIyBcLPKVxc-17">
          <mxGeometry y="170" width="180" height="30" as="geometry" />
        </mxCell>
        <mxCell id="sITx-1ydjFIyBcLPKVxc-60" value="" style="shape=partialRectangle;connectable=0;fillColor=none;top=0;left=0;bottom=0;right=0;editable=1;overflow=hidden;" vertex="1" parent="sITx-1ydjFIyBcLPKVxc-59">
          <mxGeometry width="30" height="30" as="geometry" />
        </mxCell>
        <mxCell id="sITx-1ydjFIyBcLPKVxc-61" value="Cuidados" style="shape=partialRectangle;connectable=0;fillColor=none;top=0;left=0;bottom=0;right=0;align=left;spacingLeft=6;overflow=hidden;" vertex="1" parent="sITx-1ydjFIyBcLPKVxc-59">
          <mxGeometry x="30" width="150" height="30" as="geometry" />
        </mxCell>
        <mxCell id="sITx-1ydjFIyBcLPKVxc-68" value="" style="shape=partialRectangle;collapsible=0;dropTarget=0;pointerEvents=0;fillColor=none;top=0;left=0;bottom=0;right=0;points=[[0,0.5],[1,0.5]];portConstraint=eastwest;" vertex="1" parent="sITx-1ydjFIyBcLPKVxc-17">
          <mxGeometry y="200" width="180" height="30" as="geometry" />
        </mxCell>
        <mxCell id="sITx-1ydjFIyBcLPKVxc-69" value="" style="shape=partialRectangle;connectable=0;fillColor=none;top=0;left=0;bottom=0;right=0;editable=1;overflow=hidden;" vertex="1" parent="sITx-1ydjFIyBcLPKVxc-68">
          <mxGeometry width="30" height="30" as="geometry" />
        </mxCell>
        <mxCell id="sITx-1ydjFIyBcLPKVxc-70" value="img_url" style="shape=partialRectangle;connectable=0;fillColor=none;top=0;left=0;bottom=0;right=0;align=left;spacingLeft=6;overflow=hidden;" vertex="1" parent="sITx-1ydjFIyBcLPKVxc-68">
          <mxGeometry x="30" width="150" height="30" as="geometry" />
        </mxCell>
        <mxCell id="sITx-1ydjFIyBcLPKVxc-136" value="reguisto_planta_jardin" style="shape=table;startSize=30;container=1;collapsible=1;childLayout=tableLayout;fixedRows=1;rowLines=0;fontStyle=1;align=center;resizeLast=1;" vertex="1" parent="1">
          <mxGeometry x="10" y="290" width="180" height="160" as="geometry" />
        </mxCell>
        <mxCell id="sITx-1ydjFIyBcLPKVxc-137" value="" style="shape=partialRectangle;collapsible=0;dropTarget=0;pointerEvents=0;fillColor=none;top=0;left=0;bottom=1;right=0;points=[[0,0.5],[1,0.5]];portConstraint=eastwest;" vertex="1" parent="sITx-1ydjFIyBcLPKVxc-136">
          <mxGeometry y="30" width="180" height="30" as="geometry" />
        </mxCell>
        <mxCell id="sITx-1ydjFIyBcLPKVxc-138" value="PK" style="shape=partialRectangle;connectable=0;fillColor=none;top=0;left=0;bottom=0;right=0;fontStyle=1;overflow=hidden;" vertex="1" parent="sITx-1ydjFIyBcLPKVxc-137">
          <mxGeometry width="30" height="30" as="geometry" />
        </mxCell>
        <mxCell id="sITx-1ydjFIyBcLPKVxc-139" value="id_x" style="shape=partialRectangle;connectable=0;fillColor=none;top=0;left=0;bottom=0;right=0;align=left;spacingLeft=6;fontStyle=5;overflow=hidden;" vertex="1" parent="sITx-1ydjFIyBcLPKVxc-137">
          <mxGeometry x="30" width="150" height="30" as="geometry" />
        </mxCell>
        <mxCell id="sITx-1ydjFIyBcLPKVxc-140" value="" style="shape=partialRectangle;collapsible=0;dropTarget=0;pointerEvents=0;fillColor=none;top=0;left=0;bottom=0;right=0;points=[[0,0.5],[1,0.5]];portConstraint=eastwest;" vertex="1" parent="sITx-1ydjFIyBcLPKVxc-136">
          <mxGeometry y="60" width="180" height="30" as="geometry" />
        </mxCell>
        <mxCell id="sITx-1ydjFIyBcLPKVxc-141" value="" style="shape=partialRectangle;connectable=0;fillColor=none;top=0;left=0;bottom=0;right=0;editable=1;overflow=hidden;" vertex="1" parent="sITx-1ydjFIyBcLPKVxc-140">
          <mxGeometry width="30" height="30" as="geometry" />
        </mxCell>
        <mxCell id="sITx-1ydjFIyBcLPKVxc-142" value="id_jardin" style="shape=partialRectangle;connectable=0;fillColor=none;top=0;left=0;bottom=0;right=0;align=left;spacingLeft=6;overflow=hidden;" vertex="1" parent="sITx-1ydjFIyBcLPKVxc-140">
          <mxGeometry x="30" width="150" height="30" as="geometry" />
        </mxCell>
        <mxCell id="sITx-1ydjFIyBcLPKVxc-143" value="" style="shape=partialRectangle;collapsible=0;dropTarget=0;pointerEvents=0;fillColor=none;top=0;left=0;bottom=0;right=0;points=[[0,0.5],[1,0.5]];portConstraint=eastwest;" vertex="1" parent="sITx-1ydjFIyBcLPKVxc-136">
          <mxGeometry y="90" width="180" height="30" as="geometry" />
        </mxCell>
        <mxCell id="sITx-1ydjFIyBcLPKVxc-144" value="" style="shape=partialRectangle;connectable=0;fillColor=none;top=0;left=0;bottom=0;right=0;editable=1;overflow=hidden;" vertex="1" parent="sITx-1ydjFIyBcLPKVxc-143">
          <mxGeometry width="30" height="30" as="geometry" />
        </mxCell>
        <mxCell id="sITx-1ydjFIyBcLPKVxc-145" value="id_planta" style="shape=partialRectangle;connectable=0;fillColor=none;top=0;left=0;bottom=0;right=0;align=left;spacingLeft=6;overflow=hidden;" vertex="1" parent="sITx-1ydjFIyBcLPKVxc-143">
          <mxGeometry x="30" width="150" height="30" as="geometry" />
        </mxCell>
        <mxCell id="sITx-1ydjFIyBcLPKVxc-146" value="" style="shape=partialRectangle;collapsible=0;dropTarget=0;pointerEvents=0;fillColor=none;top=0;left=0;bottom=0;right=0;points=[[0,0.5],[1,0.5]];portConstraint=eastwest;" vertex="1" parent="sITx-1ydjFIyBcLPKVxc-136">
          <mxGeometry y="120" width="180" height="30" as="geometry" />
        </mxCell>
        <mxCell id="sITx-1ydjFIyBcLPKVxc-147" value="" style="shape=partialRectangle;connectable=0;fillColor=none;top=0;left=0;bottom=0;right=0;editable=1;overflow=hidden;" vertex="1" parent="sITx-1ydjFIyBcLPKVxc-146">
          <mxGeometry width="30" height="30" as="geometry" />
        </mxCell>
        <mxCell id="sITx-1ydjFIyBcLPKVxc-148" value="" style="shape=partialRectangle;connectable=0;fillColor=none;top=0;left=0;bottom=0;right=0;align=left;spacingLeft=6;overflow=hidden;" vertex="1" parent="sITx-1ydjFIyBcLPKVxc-146">
          <mxGeometry x="30" width="150" height="30" as="geometry" />
        </mxCell>
        <mxCell id="sITx-1ydjFIyBcLPKVxc-151" value="relacion_plantas_plagas" style="shape=table;startSize=30;container=1;collapsible=1;childLayout=tableLayout;fixedRows=1;rowLines=0;fontStyle=1;align=center;resizeLast=1;" vertex="1" parent="1">
          <mxGeometry x="660" y="210" width="180" height="160" as="geometry" />
        </mxCell>
        <mxCell id="sITx-1ydjFIyBcLPKVxc-152" value="" style="shape=partialRectangle;collapsible=0;dropTarget=0;pointerEvents=0;fillColor=none;top=0;left=0;bottom=1;right=0;points=[[0,0.5],[1,0.5]];portConstraint=eastwest;" vertex="1" parent="sITx-1ydjFIyBcLPKVxc-151">
          <mxGeometry y="30" width="180" height="30" as="geometry" />
        </mxCell>
        <mxCell id="sITx-1ydjFIyBcLPKVxc-153" value="PK" style="shape=partialRectangle;connectable=0;fillColor=none;top=0;left=0;bottom=0;right=0;fontStyle=1;overflow=hidden;" vertex="1" parent="sITx-1ydjFIyBcLPKVxc-152">
          <mxGeometry width="30" height="30" as="geometry" />
        </mxCell>
        <mxCell id="sITx-1ydjFIyBcLPKVxc-154" value="id_relacion" style="shape=partialRectangle;connectable=0;fillColor=none;top=0;left=0;bottom=0;right=0;align=left;spacingLeft=6;fontStyle=5;overflow=hidden;" vertex="1" parent="sITx-1ydjFIyBcLPKVxc-152">
          <mxGeometry x="30" width="150" height="30" as="geometry" />
        </mxCell>
        <mxCell id="sITx-1ydjFIyBcLPKVxc-155" value="" style="shape=partialRectangle;collapsible=0;dropTarget=0;pointerEvents=0;fillColor=none;top=0;left=0;bottom=0;right=0;points=[[0,0.5],[1,0.5]];portConstraint=eastwest;" vertex="1" parent="sITx-1ydjFIyBcLPKVxc-151">
          <mxGeometry y="60" width="180" height="30" as="geometry" />
        </mxCell>
        <mxCell id="sITx-1ydjFIyBcLPKVxc-156" value="" style="shape=partialRectangle;connectable=0;fillColor=none;top=0;left=0;bottom=0;right=0;editable=1;overflow=hidden;" vertex="1" parent="sITx-1ydjFIyBcLPKVxc-155">
          <mxGeometry width="30" height="30" as="geometry" />
        </mxCell>
        <mxCell id="sITx-1ydjFIyBcLPKVxc-157" value="id_plaga" style="shape=partialRectangle;connectable=0;fillColor=none;top=0;left=0;bottom=0;right=0;align=left;spacingLeft=6;overflow=hidden;" vertex="1" parent="sITx-1ydjFIyBcLPKVxc-155">
          <mxGeometry x="30" width="150" height="30" as="geometry" />
        </mxCell>
        <mxCell id="sITx-1ydjFIyBcLPKVxc-158" value="" style="shape=partialRectangle;collapsible=0;dropTarget=0;pointerEvents=0;fillColor=none;top=0;left=0;bottom=0;right=0;points=[[0,0.5],[1,0.5]];portConstraint=eastwest;" vertex="1" parent="sITx-1ydjFIyBcLPKVxc-151">
          <mxGeometry y="90" width="180" height="30" as="geometry" />
        </mxCell>
        <mxCell id="sITx-1ydjFIyBcLPKVxc-159" value="" style="shape=partialRectangle;connectable=0;fillColor=none;top=0;left=0;bottom=0;right=0;editable=1;overflow=hidden;" vertex="1" parent="sITx-1ydjFIyBcLPKVxc-158">
          <mxGeometry width="30" height="30" as="geometry" />
        </mxCell>
        <mxCell id="sITx-1ydjFIyBcLPKVxc-160" value="id_planta" style="shape=partialRectangle;connectable=0;fillColor=none;top=0;left=0;bottom=0;right=0;align=left;spacingLeft=6;overflow=hidden;" vertex="1" parent="sITx-1ydjFIyBcLPKVxc-158">
          <mxGeometry x="30" width="150" height="30" as="geometry" />
        </mxCell>
        <mxCell id="sITx-1ydjFIyBcLPKVxc-161" value="" style="shape=partialRectangle;collapsible=0;dropTarget=0;pointerEvents=0;fillColor=none;top=0;left=0;bottom=0;right=0;points=[[0,0.5],[1,0.5]];portConstraint=eastwest;" vertex="1" parent="sITx-1ydjFIyBcLPKVxc-151">
          <mxGeometry y="120" width="180" height="30" as="geometry" />
        </mxCell>
        <mxCell id="sITx-1ydjFIyBcLPKVxc-162" value="" style="shape=partialRectangle;connectable=0;fillColor=none;top=0;left=0;bottom=0;right=0;editable=1;overflow=hidden;" vertex="1" parent="sITx-1ydjFIyBcLPKVxc-161">
          <mxGeometry width="30" height="30" as="geometry" />
        </mxCell>
        <mxCell id="sITx-1ydjFIyBcLPKVxc-163" value="Row 3" style="shape=partialRectangle;connectable=0;fillColor=none;top=0;left=0;bottom=0;right=0;align=left;spacingLeft=6;overflow=hidden;" vertex="1" parent="sITx-1ydjFIyBcLPKVxc-161">
          <mxGeometry x="30" width="150" height="30" as="geometry" />
        </mxCell>
        <mxCell id="sITx-1ydjFIyBcLPKVxc-184" style="edgeStyle=orthogonalEdgeStyle;rounded=0;orthogonalLoop=1;jettySize=auto;html=1;startArrow=ERoneToMany;startFill=0;endArrow=ERzeroToMany;endFill=1;" edge="1" parent="1" source="sITx-1ydjFIyBcLPKVxc-74" target="sITx-1ydjFIyBcLPKVxc-168">
          <mxGeometry relative="1" as="geometry" />
        </mxCell>
        <mxCell id="sITx-1ydjFIyBcLPKVxc-185" style="edgeStyle=orthogonalEdgeStyle;rounded=0;orthogonalLoop=1;jettySize=auto;html=1;entryX=0;entryY=0.5;entryDx=0;entryDy=0;startArrow=ERmandOne;startFill=0;endArrow=ERmany;endFill=0;" edge="1" parent="1" source="sITx-1ydjFIyBcLPKVxc-94" target="sITx-1ydjFIyBcLPKVxc-169">
          <mxGeometry relative="1" as="geometry" />
        </mxCell>
        <mxCell id="sITx-1ydjFIyBcLPKVxc-87" value="Zonas" style="shape=table;startSize=30;container=1;collapsible=1;childLayout=tableLayout;fixedRows=1;rowLines=0;fontStyle=1;align=center;resizeLast=1;" vertex="1" parent="1">
          <mxGeometry x="260" y="490" width="180" height="190" as="geometry" />
        </mxCell>
        <mxCell id="sITx-1ydjFIyBcLPKVxc-88" value="" style="shape=partialRectangle;collapsible=0;dropTarget=0;pointerEvents=0;fillColor=none;top=0;left=0;bottom=1;right=0;points=[[0,0.5],[1,0.5]];portConstraint=eastwest;" vertex="1" parent="sITx-1ydjFIyBcLPKVxc-87">
          <mxGeometry y="30" width="180" height="30" as="geometry" />
        </mxCell>
        <mxCell id="sITx-1ydjFIyBcLPKVxc-89" value="PK" style="shape=partialRectangle;connectable=0;fillColor=none;top=0;left=0;bottom=0;right=0;fontStyle=1;overflow=hidden;" vertex="1" parent="sITx-1ydjFIyBcLPKVxc-88">
          <mxGeometry width="30" height="30" as="geometry" />
        </mxCell>
        <mxCell id="sITx-1ydjFIyBcLPKVxc-90" value="id_zona" style="shape=partialRectangle;connectable=0;fillColor=none;top=0;left=0;bottom=0;right=0;align=left;spacingLeft=6;fontStyle=5;overflow=hidden;" vertex="1" parent="sITx-1ydjFIyBcLPKVxc-88">
          <mxGeometry x="30" width="150" height="30" as="geometry" />
        </mxCell>
        <mxCell id="sITx-1ydjFIyBcLPKVxc-91" value="" style="shape=partialRectangle;collapsible=0;dropTarget=0;pointerEvents=0;fillColor=none;top=0;left=0;bottom=0;right=0;points=[[0,0.5],[1,0.5]];portConstraint=eastwest;" vertex="1" parent="sITx-1ydjFIyBcLPKVxc-87">
          <mxGeometry y="60" width="180" height="30" as="geometry" />
        </mxCell>
        <mxCell id="sITx-1ydjFIyBcLPKVxc-92" value="" style="shape=partialRectangle;connectable=0;fillColor=none;top=0;left=0;bottom=0;right=0;editable=1;overflow=hidden;" vertex="1" parent="sITx-1ydjFIyBcLPKVxc-91">
          <mxGeometry width="30" height="30" as="geometry" />
        </mxCell>
        <mxCell id="sITx-1ydjFIyBcLPKVxc-93" value="Humedad" style="shape=partialRectangle;connectable=0;fillColor=none;top=0;left=0;bottom=0;right=0;align=left;spacingLeft=6;overflow=hidden;" vertex="1" parent="sITx-1ydjFIyBcLPKVxc-91">
          <mxGeometry x="30" width="150" height="30" as="geometry" />
        </mxCell>
        <mxCell id="sITx-1ydjFIyBcLPKVxc-94" value="" style="shape=partialRectangle;collapsible=0;dropTarget=0;pointerEvents=0;fillColor=none;top=0;left=0;bottom=0;right=0;points=[[0,0.5],[1,0.5]];portConstraint=eastwest;" vertex="1" parent="sITx-1ydjFIyBcLPKVxc-87">
          <mxGeometry y="90" width="180" height="30" as="geometry" />
        </mxCell>
        <mxCell id="sITx-1ydjFIyBcLPKVxc-95" value="" style="shape=partialRectangle;connectable=0;fillColor=none;top=0;left=0;bottom=0;right=0;editable=1;overflow=hidden;" vertex="1" parent="sITx-1ydjFIyBcLPKVxc-94">
          <mxGeometry width="30" height="30" as="geometry" />
        </mxCell>
        <mxCell id="sITx-1ydjFIyBcLPKVxc-96" value="Suelo" style="shape=partialRectangle;connectable=0;fillColor=none;top=0;left=0;bottom=0;right=0;align=left;spacingLeft=6;overflow=hidden;" vertex="1" parent="sITx-1ydjFIyBcLPKVxc-94">
          <mxGeometry x="30" width="150" height="30" as="geometry" />
        </mxCell>
        <mxCell id="sITx-1ydjFIyBcLPKVxc-97" value="" style="shape=partialRectangle;collapsible=0;dropTarget=0;pointerEvents=0;fillColor=none;top=0;left=0;bottom=0;right=0;points=[[0,0.5],[1,0.5]];portConstraint=eastwest;" vertex="1" parent="sITx-1ydjFIyBcLPKVxc-87">
          <mxGeometry y="120" width="180" height="30" as="geometry" />
        </mxCell>
        <mxCell id="sITx-1ydjFIyBcLPKVxc-98" value="" style="shape=partialRectangle;connectable=0;fillColor=none;top=0;left=0;bottom=0;right=0;editable=1;overflow=hidden;" vertex="1" parent="sITx-1ydjFIyBcLPKVxc-97">
          <mxGeometry width="30" height="30" as="geometry" />
        </mxCell>
        <mxCell id="sITx-1ydjFIyBcLPKVxc-99" value="Temperatura" style="shape=partialRectangle;connectable=0;fillColor=none;top=0;left=0;bottom=0;right=0;align=left;spacingLeft=6;overflow=hidden;" vertex="1" parent="sITx-1ydjFIyBcLPKVxc-97">
          <mxGeometry x="30" width="150" height="30" as="geometry" />
        </mxCell>
        <mxCell id="sITx-1ydjFIyBcLPKVxc-106" value="" style="shape=partialRectangle;collapsible=0;dropTarget=0;pointerEvents=0;fillColor=none;top=0;left=0;bottom=0;right=0;points=[[0,0.5],[1,0.5]];portConstraint=eastwest;" vertex="1" parent="sITx-1ydjFIyBcLPKVxc-87">
          <mxGeometry y="150" width="180" height="30" as="geometry" />
        </mxCell>
        <mxCell id="sITx-1ydjFIyBcLPKVxc-107" value="" style="shape=partialRectangle;connectable=0;fillColor=none;top=0;left=0;bottom=0;right=0;editable=1;overflow=hidden;" vertex="1" parent="sITx-1ydjFIyBcLPKVxc-106">
          <mxGeometry width="30" height="30" as="geometry" />
        </mxCell>
        <mxCell id="sITx-1ydjFIyBcLPKVxc-108" value="id_clima" style="shape=partialRectangle;connectable=0;fillColor=none;top=0;left=0;bottom=0;right=0;align=left;spacingLeft=6;overflow=hidden;" vertex="1" parent="sITx-1ydjFIyBcLPKVxc-106">
          <mxGeometry x="30" width="150" height="30" as="geometry" />
        </mxCell>
        <mxCell id="sITx-1ydjFIyBcLPKVxc-168" value="zonas_tiendas" style="shape=table;startSize=30;container=1;collapsible=1;childLayout=tableLayout;fixedRows=1;rowLines=0;fontStyle=1;align=center;resizeLast=1;" vertex="1" parent="1">
          <mxGeometry x="490" y="550" width="180" height="130" as="geometry" />
        </mxCell>
        <mxCell id="sITx-1ydjFIyBcLPKVxc-169" value="" style="shape=partialRectangle;collapsible=0;dropTarget=0;pointerEvents=0;fillColor=none;top=0;left=0;bottom=1;right=0;points=[[0,0.5],[1,0.5]];portConstraint=eastwest;" vertex="1" parent="sITx-1ydjFIyBcLPKVxc-168">
          <mxGeometry y="30" width="180" height="30" as="geometry" />
        </mxCell>
        <mxCell id="sITx-1ydjFIyBcLPKVxc-170" value="PK" style="shape=partialRectangle;connectable=0;fillColor=none;top=0;left=0;bottom=0;right=0;fontStyle=1;overflow=hidden;" vertex="1" parent="sITx-1ydjFIyBcLPKVxc-169">
          <mxGeometry width="30" height="30" as="geometry" />
        </mxCell>
        <mxCell id="sITx-1ydjFIyBcLPKVxc-171" value="id_zonas_tiendas" style="shape=partialRectangle;connectable=0;fillColor=none;top=0;left=0;bottom=0;right=0;align=left;spacingLeft=6;fontStyle=5;overflow=hidden;" vertex="1" parent="sITx-1ydjFIyBcLPKVxc-169">
          <mxGeometry x="30" width="150" height="30" as="geometry" />
        </mxCell>
        <mxCell id="sITx-1ydjFIyBcLPKVxc-172" value="" style="shape=partialRectangle;collapsible=0;dropTarget=0;pointerEvents=0;fillColor=none;top=0;left=0;bottom=0;right=0;points=[[0,0.5],[1,0.5]];portConstraint=eastwest;" vertex="1" parent="sITx-1ydjFIyBcLPKVxc-168">
          <mxGeometry y="60" width="180" height="30" as="geometry" />
        </mxCell>
        <mxCell id="sITx-1ydjFIyBcLPKVxc-173" value="" style="shape=partialRectangle;connectable=0;fillColor=none;top=0;left=0;bottom=0;right=0;editable=1;overflow=hidden;" vertex="1" parent="sITx-1ydjFIyBcLPKVxc-172">
          <mxGeometry width="30" height="30" as="geometry" />
        </mxCell>
        <mxCell id="sITx-1ydjFIyBcLPKVxc-174" value="id_zona" style="shape=partialRectangle;connectable=0;fillColor=none;top=0;left=0;bottom=0;right=0;align=left;spacingLeft=6;overflow=hidden;" vertex="1" parent="sITx-1ydjFIyBcLPKVxc-172">
          <mxGeometry x="30" width="150" height="30" as="geometry" />
        </mxCell>
        <mxCell id="sITx-1ydjFIyBcLPKVxc-175" value="" style="shape=partialRectangle;collapsible=0;dropTarget=0;pointerEvents=0;fillColor=none;top=0;left=0;bottom=0;right=0;points=[[0,0.5],[1,0.5]];portConstraint=eastwest;" vertex="1" parent="sITx-1ydjFIyBcLPKVxc-168">
          <mxGeometry y="90" width="180" height="30" as="geometry" />
        </mxCell>
        <mxCell id="sITx-1ydjFIyBcLPKVxc-176" value="" style="shape=partialRectangle;connectable=0;fillColor=none;top=0;left=0;bottom=0;right=0;editable=1;overflow=hidden;" vertex="1" parent="sITx-1ydjFIyBcLPKVxc-175">
          <mxGeometry width="30" height="30" as="geometry" />
        </mxCell>
        <mxCell id="sITx-1ydjFIyBcLPKVxc-177" value="id_tienda" style="shape=partialRectangle;connectable=0;fillColor=none;top=0;left=0;bottom=0;right=0;align=left;spacingLeft=6;overflow=hidden;" vertex="1" parent="sITx-1ydjFIyBcLPKVxc-175">
          <mxGeometry x="30" width="150" height="30" as="geometry" />
        </mxCell>
        <mxCell id="sITx-1ydjFIyBcLPKVxc-74" value="Tiendas" style="shape=table;startSize=30;container=1;collapsible=1;childLayout=tableLayout;fixedRows=1;rowLines=0;fontStyle=1;align=center;resizeLast=1;" vertex="1" parent="1">
          <mxGeometry x="450" y="300" width="180" height="190" as="geometry" />
        </mxCell>
        <mxCell id="sITx-1ydjFIyBcLPKVxc-75" value="" style="shape=partialRectangle;collapsible=0;dropTarget=0;pointerEvents=0;fillColor=none;top=0;left=0;bottom=1;right=0;points=[[0,0.5],[1,0.5]];portConstraint=eastwest;" vertex="1" parent="sITx-1ydjFIyBcLPKVxc-74">
          <mxGeometry y="30" width="180" height="30" as="geometry" />
        </mxCell>
        <mxCell id="sITx-1ydjFIyBcLPKVxc-76" value="PK" style="shape=partialRectangle;connectable=0;fillColor=none;top=0;left=0;bottom=0;right=0;fontStyle=1;overflow=hidden;" vertex="1" parent="sITx-1ydjFIyBcLPKVxc-75">
          <mxGeometry width="30" height="30" as="geometry" />
        </mxCell>
        <mxCell id="sITx-1ydjFIyBcLPKVxc-77" value="id_tienda" style="shape=partialRectangle;connectable=0;fillColor=none;top=0;left=0;bottom=0;right=0;align=left;spacingLeft=6;fontStyle=5;overflow=hidden;" vertex="1" parent="sITx-1ydjFIyBcLPKVxc-75">
          <mxGeometry x="30" width="150" height="30" as="geometry" />
        </mxCell>
        <mxCell id="sITx-1ydjFIyBcLPKVxc-78" value="" style="shape=partialRectangle;collapsible=0;dropTarget=0;pointerEvents=0;fillColor=none;top=0;left=0;bottom=0;right=0;points=[[0,0.5],[1,0.5]];portConstraint=eastwest;" vertex="1" parent="sITx-1ydjFIyBcLPKVxc-74">
          <mxGeometry y="60" width="180" height="30" as="geometry" />
        </mxCell>
        <mxCell id="sITx-1ydjFIyBcLPKVxc-79" value="" style="shape=partialRectangle;connectable=0;fillColor=none;top=0;left=0;bottom=0;right=0;editable=1;overflow=hidden;" vertex="1" parent="sITx-1ydjFIyBcLPKVxc-78">
          <mxGeometry width="30" height="30" as="geometry" />
        </mxCell>
        <mxCell id="sITx-1ydjFIyBcLPKVxc-80" value="Nombre" style="shape=partialRectangle;connectable=0;fillColor=none;top=0;left=0;bottom=0;right=0;align=left;spacingLeft=6;overflow=hidden;" vertex="1" parent="sITx-1ydjFIyBcLPKVxc-78">
          <mxGeometry x="30" width="150" height="30" as="geometry" />
        </mxCell>
        <mxCell id="sITx-1ydjFIyBcLPKVxc-81" value="" style="shape=partialRectangle;collapsible=0;dropTarget=0;pointerEvents=0;fillColor=none;top=0;left=0;bottom=0;right=0;points=[[0,0.5],[1,0.5]];portConstraint=eastwest;" vertex="1" parent="sITx-1ydjFIyBcLPKVxc-74">
          <mxGeometry y="90" width="180" height="30" as="geometry" />
        </mxCell>
        <mxCell id="sITx-1ydjFIyBcLPKVxc-82" value="" style="shape=partialRectangle;connectable=0;fillColor=none;top=0;left=0;bottom=0;right=0;editable=1;overflow=hidden;" vertex="1" parent="sITx-1ydjFIyBcLPKVxc-81">
          <mxGeometry width="30" height="30" as="geometry" />
        </mxCell>
        <mxCell id="sITx-1ydjFIyBcLPKVxc-83" value="Ubicación" style="shape=partialRectangle;connectable=0;fillColor=none;top=0;left=0;bottom=0;right=0;align=left;spacingLeft=6;overflow=hidden;" vertex="1" parent="sITx-1ydjFIyBcLPKVxc-81">
          <mxGeometry x="30" width="150" height="30" as="geometry" />
        </mxCell>
        <mxCell id="sITx-1ydjFIyBcLPKVxc-84" value="" style="shape=partialRectangle;collapsible=0;dropTarget=0;pointerEvents=0;fillColor=none;top=0;left=0;bottom=0;right=0;points=[[0,0.5],[1,0.5]];portConstraint=eastwest;" vertex="1" parent="sITx-1ydjFIyBcLPKVxc-74">
          <mxGeometry y="120" width="180" height="30" as="geometry" />
        </mxCell>
        <mxCell id="sITx-1ydjFIyBcLPKVxc-85" value="" style="shape=partialRectangle;connectable=0;fillColor=none;top=0;left=0;bottom=0;right=0;editable=1;overflow=hidden;" vertex="1" parent="sITx-1ydjFIyBcLPKVxc-84">
          <mxGeometry width="30" height="30" as="geometry" />
        </mxCell>
        <mxCell id="sITx-1ydjFIyBcLPKVxc-86" value="Contacto" style="shape=partialRectangle;connectable=0;fillColor=none;top=0;left=0;bottom=0;right=0;align=left;spacingLeft=6;overflow=hidden;" vertex="1" parent="sITx-1ydjFIyBcLPKVxc-84">
          <mxGeometry x="30" width="150" height="30" as="geometry" />
        </mxCell>
        <mxCell id="sITx-1ydjFIyBcLPKVxc-103" value="" style="shape=partialRectangle;collapsible=0;dropTarget=0;pointerEvents=0;fillColor=none;top=0;left=0;bottom=0;right=0;points=[[0,0.5],[1,0.5]];portConstraint=eastwest;" vertex="1" parent="sITx-1ydjFIyBcLPKVxc-74">
          <mxGeometry y="150" width="180" height="30" as="geometry" />
        </mxCell>
        <mxCell id="sITx-1ydjFIyBcLPKVxc-104" value="" style="shape=partialRectangle;connectable=0;fillColor=none;top=0;left=0;bottom=0;right=0;editable=1;overflow=hidden;" vertex="1" parent="sITx-1ydjFIyBcLPKVxc-103">
          <mxGeometry width="30" height="30" as="geometry" />
        </mxCell>
        <mxCell id="sITx-1ydjFIyBcLPKVxc-105" value="img_url" style="shape=partialRectangle;connectable=0;fillColor=none;top=0;left=0;bottom=0;right=0;align=left;spacingLeft=6;overflow=hidden;" vertex="1" parent="sITx-1ydjFIyBcLPKVxc-103">
          <mxGeometry x="30" width="150" height="30" as="geometry" />
        </mxCell>
      </root>
    </mxGraphModel>
  </diagram>
</mxfile>
